<?xml version="1.0" encoding="UTF-8"?>
<svg xmlns="http://www.w3.org/2000/svg" viewBox="0 0 900 800" width="900" height="800" role="img" aria-label="مجموعة 9 ألوان">
  
  <defs>
    <linearGradient id="creamBg" x1="0%" y1="0%" x2="0%" y2="100%">
      <stop offset="0%" stop-color="#FAF7F2"/>
      <stop offset="100%" stop-color="#EFE8DC"/>
    </linearGradient>
    <linearGradient id="goldShine" x1="0%" y1="0%" x2="100%" y2="100%">
      <stop offset="0%" stop-color="#E2C879"/>
      <stop offset="100%" stop-color="#C9A84C"/>
    </linearGradient>
    <linearGradient id="primaryDeep" x1="0%" y1="0%" x2="0%" y2="100%">
      <stop offset="0%" stop-color="#1B4332"/>
      <stop offset="100%" stop-color="#143326"/>
    </linearGradient>
    <filter id="soft" x="-10%" y="-10%" width="120%" height="120%">
      <feDropShadow dx="0" dy="4" stdDeviation="6" flood-opacity="0.18"/>
    </filter>
    <filter id="softer" x="-10%" y="-10%" width="120%" height="120%">
      <feDropShadow dx="0" dy="2" stdDeviation="3" flood-opacity="0.12"/>
    </filter>
  </defs>
  <rect width="900" height="800" fill="url(#creamBg)"/>
  <text x="450" y="56" text-anchor="middle" font-family="'Playfair Display', Georgia, serif" font-size="24" font-weight="700" fill="#1B4332">مجموعة 9 ألوان</text>
  
    <g transform="translate(130,100)">
      <rect x="-90" y="-90" width="180" height="180" rx="14" fill="#FAF7F2" stroke="url(#goldShine)" stroke-width="1.2" filter="url(#softer)"/>
      <g transform="scale(0.32)">
        
  <g transform="translate(0,0) scale(1)" aria-label="">
    <!-- ظل أرضي -->
    <ellipse cx="0" cy="252" rx="138" ry="14" fill="#000" opacity="0.10"/>
    <!-- مسند ظهر مغطى بنعومة طي القماش -->
    <path filter="url(#soft)" fill="#D4C5A9" stroke="#1B4332" stroke-width="2"
      d="M -132 -120 C -132 -160 132 -160 132 -120 L 122 38 C 122 52 108 60 92 60 L -92 60 C -108 60 -122 52 -122 38 Z"/>
    <!-- خطوط طي عمودية على الظهر -->
    <path d="M -78 -116 L -82 50  M 0 -130 L 0 56  M 78 -116 L 82 50"
      fill="none" stroke="#1B4332" stroke-opacity="0.16" stroke-width="1.4"/>
    <!-- خياطة ذهبية على الحدّ -->
    <path d="M -130 -116 C -130 -154 130 -154 130 -116" fill="none"
      stroke="url(#goldShine)" stroke-width="1.2" stroke-dasharray="4 4" opacity="0.55"/>
    <!-- المقعد -->
    <path filter="url(#soft)" fill="#D4C5A9" stroke="#1B4332" stroke-width="2"
      d="M -132 52 L 132 52 L 162 102 C 166 122 148 138 120 138 L -120 138 C -148 138 -166 122 -162 102 Z"/>
    <!-- التواء القماش على الجبهة -->
    <path d="M -150 110 Q 0 156 150 110" fill="none" stroke="#1B4332" stroke-opacity="0.22" stroke-width="1.4"/>
    <!-- الأرجل الخشبية -->
    <g stroke="#3d2a1f" stroke-width="1">
      <path fill="#6b4e3d" d="M -110 138 L -120 232 L -98 232 L -90 138 Z"/>
      <path fill="#6b4e3d" d="M -34 138 L -42 232 L -20 232 L -12 138 Z"/>
      <path fill="#6b4e3d" d="M 22 138 L 16 232 L 38 232 L 46 138 Z"/>
      <path fill="#6b4e3d" d="M 100 138 L 90 232 L 112 232 L 122 138 Z"/>
    </g>
  </g>
      </g>
      <text y="76" text-anchor="middle" font-family="'Inter', sans-serif"
        font-size="13" font-weight="700" fill="#1B4332">بيج</text>
    </g>
    <g transform="translate(350,100)">
      <rect x="-90" y="-90" width="180" height="180" rx="14" fill="#FAF7F2" stroke="url(#goldShine)" stroke-width="1.2" filter="url(#softer)"/>
      <g transform="scale(0.32)">
        
  <g transform="translate(0,0) scale(1)" aria-label="">
    <!-- ظل أرضي -->
    <ellipse cx="0" cy="252" rx="138" ry="14" fill="#000" opacity="0.10"/>
    <!-- مسند ظهر مغطى بنعومة طي القماش -->
    <path filter="url(#soft)" fill="#8E8E8E" stroke="#1B4332" stroke-width="2"
      d="M -132 -120 C -132 -160 132 -160 132 -120 L 122 38 C 122 52 108 60 92 60 L -92 60 C -108 60 -122 52 -122 38 Z"/>
    <!-- خطوط طي عمودية على الظهر -->
    <path d="M -78 -116 L -82 50  M 0 -130 L 0 56  M 78 -116 L 82 50"
      fill="none" stroke="#1B4332" stroke-opacity="0.16" stroke-width="1.4"/>
    <!-- خياطة ذهبية على الحدّ -->
    <path d="M -130 -116 C -130 -154 130 -154 130 -116" fill="none"
      stroke="url(#goldShine)" stroke-width="1.2" stroke-dasharray="4 4" opacity="0.55"/>
    <!-- المقعد -->
    <path filter="url(#soft)" fill="#8E8E8E" stroke="#1B4332" stroke-width="2"
      d="M -132 52 L 132 52 L 162 102 C 166 122 148 138 120 138 L -120 138 C -148 138 -166 122 -162 102 Z"/>
    <!-- التواء القماش على الجبهة -->
    <path d="M -150 110 Q 0 156 150 110" fill="none" stroke="#1B4332" stroke-opacity="0.22" stroke-width="1.4"/>
    <!-- الأرجل الخشبية -->
    <g stroke="#3d2a1f" stroke-width="1">
      <path fill="#6b4e3d" d="M -110 138 L -120 232 L -98 232 L -90 138 Z"/>
      <path fill="#6b4e3d" d="M -34 138 L -42 232 L -20 232 L -12 138 Z"/>
      <path fill="#6b4e3d" d="M 22 138 L 16 232 L 38 232 L 46 138 Z"/>
      <path fill="#6b4e3d" d="M 100 138 L 90 232 L 112 232 L 122 138 Z"/>
    </g>
  </g>
      </g>
      <text y="76" text-anchor="middle" font-family="'Inter', sans-serif"
        font-size="13" font-weight="700" fill="#1B4332">رمادي</text>
    </g>
    <g transform="translate(570,100)">
      <rect x="-90" y="-90" width="180" height="180" rx="14" fill="#FAF7F2" stroke="url(#goldShine)" stroke-width="1.2" filter="url(#softer)"/>
      <g transform="scale(0.32)">
        
  <g transform="translate(0,0) scale(1)" aria-label="">
    <!-- ظل أرضي -->
    <ellipse cx="0" cy="252" rx="138" ry="14" fill="#000" opacity="0.10"/>
    <!-- مسند ظهر مغطى بنعومة طي القماش -->
    <path filter="url(#soft)" fill="#6B4226" stroke="#1B4332" stroke-width="2"
      d="M -132 -120 C -132 -160 132 -160 132 -120 L 122 38 C 122 52 108 60 92 60 L -92 60 C -108 60 -122 52 -122 38 Z"/>
    <!-- خطوط طي عمودية على الظهر -->
    <path d="M -78 -116 L -82 50  M 0 -130 L 0 56  M 78 -116 L 82 50"
      fill="none" stroke="#1B4332" stroke-opacity="0.16" stroke-width="1.4"/>
    <!-- خياطة ذهبية على الحدّ -->
    <path d="M -130 -116 C -130 -154 130 -154 130 -116" fill="none"
      stroke="url(#goldShine)" stroke-width="1.2" stroke-dasharray="4 4" opacity="0.55"/>
    <!-- المقعد -->
    <path filter="url(#soft)" fill="#6B4226" stroke="#1B4332" stroke-width="2"
      d="M -132 52 L 132 52 L 162 102 C 166 122 148 138 120 138 L -120 138 C -148 138 -166 122 -162 102 Z"/>
    <!-- التواء القماش على الجبهة -->
    <path d="M -150 110 Q 0 156 150 110" fill="none" stroke="#1B4332" stroke-opacity="0.22" stroke-width="1.4"/>
    <!-- الأرجل الخشبية -->
    <g stroke="#3d2a1f" stroke-width="1">
      <path fill="#6b4e3d" d="M -110 138 L -120 232 L -98 232 L -90 138 Z"/>
      <path fill="#6b4e3d" d="M -34 138 L -42 232 L -20 232 L -12 138 Z"/>
      <path fill="#6b4e3d" d="M 22 138 L 16 232 L 38 232 L 46 138 Z"/>
      <path fill="#6b4e3d" d="M 100 138 L 90 232 L 112 232 L 122 138 Z"/>
    </g>
  </g>
      </g>
      <text y="76" text-anchor="middle" font-family="'Inter', sans-serif"
        font-size="13" font-weight="700" fill="#1B4332">بني</text>
    </g>
    <g transform="translate(130,320)">
      <rect x="-90" y="-90" width="180" height="180" rx="14" fill="#FAF7F2" stroke="url(#goldShine)" stroke-width="1.2" filter="url(#softer)"/>
      <g transform="scale(0.32)">
        
  <g transform="translate(0,0) scale(1)" aria-label="">
    <!-- ظل أرضي -->
    <ellipse cx="0" cy="252" rx="138" ry="14" fill="#000" opacity="0.10"/>
    <!-- مسند ظهر مغطى بنعومة طي القماش -->
    <path filter="url(#soft)" fill="#2C2C2C" stroke="#1B4332" stroke-width="2"
      d="M -132 -120 C -132 -160 132 -160 132 -120 L 122 38 C 122 52 108 60 92 60 L -92 60 C -108 60 -122 52 -122 38 Z"/>
    <!-- خطوط طي عمودية على الظهر -->
    <path d="M -78 -116 L -82 50  M 0 -130 L 0 56  M 78 -116 L 82 50"
      fill="none" stroke="#1B4332" stroke-opacity="0.16" stroke-width="1.4"/>
    <!-- خياطة ذهبية على الحدّ -->
    <path d="M -130 -116 C -130 -154 130 -154 130 -116" fill="none"
      stroke="url(#goldShine)" stroke-width="1.2" stroke-dasharray="4 4" opacity="0.55"/>
    <!-- المقعد -->
    <path filter="url(#soft)" fill="#2C2C2C" stroke="#1B4332" stroke-width="2"
      d="M -132 52 L 132 52 L 162 102 C 166 122 148 138 120 138 L -120 138 C -148 138 -166 122 -162 102 Z"/>
    <!-- التواء القماش على الجبهة -->
    <path d="M -150 110 Q 0 156 150 110" fill="none" stroke="#1B4332" stroke-opacity="0.22" stroke-width="1.4"/>
    <!-- الأرجل الخشبية -->
    <g stroke="#3d2a1f" stroke-width="1">
      <path fill="#6b4e3d" d="M -110 138 L -120 232 L -98 232 L -90 138 Z"/>
      <path fill="#6b4e3d" d="M -34 138 L -42 232 L -20 232 L -12 138 Z"/>
      <path fill="#6b4e3d" d="M 22 138 L 16 232 L 38 232 L 46 138 Z"/>
      <path fill="#6b4e3d" d="M 100 138 L 90 232 L 112 232 L 122 138 Z"/>
    </g>
  </g>
      </g>
      <text y="76" text-anchor="middle" font-family="'Inter', sans-serif"
        font-size="13" font-weight="700" fill="#1B4332">أسود</text>
    </g>
    <g transform="translate(350,320)">
      <rect x="-90" y="-90" width="180" height="180" rx="14" fill="#FAF7F2" stroke="url(#goldShine)" stroke-width="1.2" filter="url(#softer)"/>
      <g transform="scale(0.32)">
        
  <g transform="translate(0,0) scale(1)" aria-label="">
    <!-- ظل أرضي -->
    <ellipse cx="0" cy="252" rx="138" ry="14" fill="#000" opacity="0.10"/>
    <!-- مسند ظهر مغطى بنعومة طي القماش -->
    <path filter="url(#soft)" fill="#F5F5F0" stroke="#1B4332" stroke-width="2"
      d="M -132 -120 C -132 -160 132 -160 132 -120 L 122 38 C 122 52 108 60 92 60 L -92 60 C -108 60 -122 52 -122 38 Z"/>
    <!-- خطوط طي عمودية على الظهر -->
    <path d="M -78 -116 L -82 50  M 0 -130 L 0 56  M 78 -116 L 82 50"
      fill="none" stroke="#1B4332" stroke-opacity="0.16" stroke-width="1.4"/>
    <!-- خياطة ذهبية على الحدّ -->
    <path d="M -130 -116 C -130 -154 130 -154 130 -116" fill="none"
      stroke="url(#goldShine)" stroke-width="1.2" stroke-dasharray="4 4" opacity="0.55"/>
    <!-- المقعد -->
    <path filter="url(#soft)" fill="#F5F5F0" stroke="#1B4332" stroke-width="2"
      d="M -132 52 L 132 52 L 162 102 C 166 122 148 138 120 138 L -120 138 C -148 138 -166 122 -162 102 Z"/>
    <!-- التواء القماش على الجبهة -->
    <path d="M -150 110 Q 0 156 150 110" fill="none" stroke="#1B4332" stroke-opacity="0.22" stroke-width="1.4"/>
    <!-- الأرجل الخشبية -->
    <g stroke="#3d2a1f" stroke-width="1">
      <path fill="#6b4e3d" d="M -110 138 L -120 232 L -98 232 L -90 138 Z"/>
      <path fill="#6b4e3d" d="M -34 138 L -42 232 L -20 232 L -12 138 Z"/>
      <path fill="#6b4e3d" d="M 22 138 L 16 232 L 38 232 L 46 138 Z"/>
      <path fill="#6b4e3d" d="M 100 138 L 90 232 L 112 232 L 122 138 Z"/>
    </g>
  </g>
      </g>
      <text y="76" text-anchor="middle" font-family="'Inter', sans-serif"
        font-size="13" font-weight="700" fill="#1B4332">أبيض</text>
    </g>
    <g transform="translate(570,320)">
      <rect x="-90" y="-90" width="180" height="180" rx="14" fill="#FAF7F2" stroke="url(#goldShine)" stroke-width="1.2" filter="url(#softer)"/>
      <g transform="scale(0.32)">
        
  <g transform="translate(0,0) scale(1)" aria-label="">
    <!-- ظل أرضي -->
    <ellipse cx="0" cy="252" rx="138" ry="14" fill="#000" opacity="0.10"/>
    <!-- مسند ظهر مغطى بنعومة طي القماش -->
    <path filter="url(#soft)" fill="#722F37" stroke="#1B4332" stroke-width="2"
      d="M -132 -120 C -132 -160 132 -160 132 -120 L 122 38 C 122 52 108 60 92 60 L -92 60 C -108 60 -122 52 -122 38 Z"/>
    <!-- خطوط طي عمودية على الظهر -->
    <path d="M -78 -116 L -82 50  M 0 -130 L 0 56  M 78 -116 L 82 50"
      fill="none" stroke="#1B4332" stroke-opacity="0.16" stroke-width="1.4"/>
    <!-- خياطة ذهبية على الحدّ -->
    <path d="M -130 -116 C -130 -154 130 -154 130 -116" fill="none"
      stroke="url(#goldShine)" stroke-width="1.2" stroke-dasharray="4 4" opacity="0.55"/>
    <!-- المقعد -->
    <path filter="url(#soft)" fill="#722F37" stroke="#1B4332" stroke-width="2"
      d="M -132 52 L 132 52 L 162 102 C 166 122 148 138 120 138 L -120 138 C -148 138 -166 122 -162 102 Z"/>
    <!-- التواء القماش على الجبهة -->
    <path d="M -150 110 Q 0 156 150 110" fill="none" stroke="#1B4332" stroke-opacity="0.22" stroke-width="1.4"/>
    <!-- الأرجل الخشبية -->
    <g stroke="#3d2a1f" stroke-width="1">
      <path fill="#6b4e3d" d="M -110 138 L -120 232 L -98 232 L -90 138 Z"/>
      <path fill="#6b4e3d" d="M -34 138 L -42 232 L -20 232 L -12 138 Z"/>
      <path fill="#6b4e3d" d="M 22 138 L 16 232 L 38 232 L 46 138 Z"/>
      <path fill="#6b4e3d" d="M 100 138 L 90 232 L 112 232 L 122 138 Z"/>
    </g>
  </g>
      </g>
      <text y="76" text-anchor="middle" font-family="'Inter', sans-serif"
        font-size="13" font-weight="700" fill="#1B4332">بوردو</text>
    </g>
    <g transform="translate(130,540)">
      <rect x="-90" y="-90" width="180" height="180" rx="14" fill="#FAF7F2" stroke="url(#goldShine)" stroke-width="1.2" filter="url(#softer)"/>
      <g transform="scale(0.32)">
        
  <g transform="translate(0,0) scale(1)" aria-label="">
    <!-- ظل أرضي -->
    <ellipse cx="0" cy="252" rx="138" ry="14" fill="#000" opacity="0.10"/>
    <!-- مسند ظهر مغطى بنعومة طي القماش -->
    <path filter="url(#soft)" fill="#1B3A5C" stroke="#1B4332" stroke-width="2"
      d="M -132 -120 C -132 -160 132 -160 132 -120 L 122 38 C 122 52 108 60 92 60 L -92 60 C -108 60 -122 52 -122 38 Z"/>
    <!-- خطوط طي عمودية على الظهر -->
    <path d="M -78 -116 L -82 50  M 0 -130 L 0 56  M 78 -116 L 82 50"
      fill="none" stroke="#1B4332" stroke-opacity="0.16" stroke-width="1.4"/>
    <!-- خياطة ذهبية على الحدّ -->
    <path d="M -130 -116 C -130 -154 130 -154 130 -116" fill="none"
      stroke="url(#goldShine)" stroke-width="1.2" stroke-dasharray="4 4" opacity="0.55"/>
    <!-- المقعد -->
    <path filter="url(#soft)" fill="#1B3A5C" stroke="#1B4332" stroke-width="2"
      d="M -132 52 L 132 52 L 162 102 C 166 122 148 138 120 138 L -120 138 C -148 138 -166 122 -162 102 Z"/>
    <!-- التواء القماش على الجبهة -->
    <path d="M -150 110 Q 0 156 150 110" fill="none" stroke="#1B4332" stroke-opacity="0.22" stroke-width="1.4"/>
    <!-- الأرجل الخشبية -->
    <g stroke="#3d2a1f" stroke-width="1">
      <path fill="#6b4e3d" d="M -110 138 L -120 232 L -98 232 L -90 138 Z"/>
      <path fill="#6b4e3d" d="M -34 138 L -42 232 L -20 232 L -12 138 Z"/>
      <path fill="#6b4e3d" d="M 22 138 L 16 232 L 38 232 L 46 138 Z"/>
      <path fill="#6b4e3d" d="M 100 138 L 90 232 L 112 232 L 122 138 Z"/>
    </g>
  </g>
      </g>
      <text y="76" text-anchor="middle" font-family="'Inter', sans-serif"
        font-size="13" font-weight="700" fill="#1B4332">أزرق بحري</text>
    </g>
    <g transform="translate(350,540)">
      <rect x="-90" y="-90" width="180" height="180" rx="14" fill="#FAF7F2" stroke="url(#goldShine)" stroke-width="1.2" filter="url(#softer)"/>
      <g transform="scale(0.32)">
        
  <g transform="translate(0,0) scale(1)" aria-label="">
    <!-- ظل أرضي -->
    <ellipse cx="0" cy="252" rx="138" ry="14" fill="#000" opacity="0.10"/>
    <!-- مسند ظهر مغطى بنعومة طي القماش -->
    <path filter="url(#soft)" fill="#556B2F" stroke="#1B4332" stroke-width="2"
      d="M -132 -120 C -132 -160 132 -160 132 -120 L 122 38 C 122 52 108 60 92 60 L -92 60 C -108 60 -122 52 -122 38 Z"/>
    <!-- خطوط طي عمودية على الظهر -->
    <path d="M -78 -116 L -82 50  M 0 -130 L 0 56  M 78 -116 L 82 50"
      fill="none" stroke="#1B4332" stroke-opacity="0.16" stroke-width="1.4"/>
    <!-- خياطة ذهبية على الحدّ -->
    <path d="M -130 -116 C -130 -154 130 -154 130 -116" fill="none"
      stroke="url(#goldShine)" stroke-width="1.2" stroke-dasharray="4 4" opacity="0.55"/>
    <!-- المقعد -->
    <path filter="url(#soft)" fill="#556B2F" stroke="#1B4332" stroke-width="2"
      d="M -132 52 L 132 52 L 162 102 C 166 122 148 138 120 138 L -120 138 C -148 138 -166 122 -162 102 Z"/>
    <!-- التواء القماش على الجبهة -->
    <path d="M -150 110 Q 0 156 150 110" fill="none" stroke="#1B4332" stroke-opacity="0.22" stroke-width="1.4"/>
    <!-- الأرجل الخشبية -->
    <g stroke="#3d2a1f" stroke-width="1">
      <path fill="#6b4e3d" d="M -110 138 L -120 232 L -98 232 L -90 138 Z"/>
      <path fill="#6b4e3d" d="M -34 138 L -42 232 L -20 232 L -12 138 Z"/>
      <path fill="#6b4e3d" d="M 22 138 L 16 232 L 38 232 L 46 138 Z"/>
      <path fill="#6b4e3d" d="M 100 138 L 90 232 L 112 232 L 122 138 Z"/>
    </g>
  </g>
      </g>
      <text y="76" text-anchor="middle" font-family="'Inter', sans-serif"
        font-size="13" font-weight="700" fill="#1B4332">زيتوني</text>
    </g>
    <g transform="translate(570,540)">
      <rect x="-90" y="-90" width="180" height="180" rx="14" fill="#FAF7F2" stroke="url(#goldShine)" stroke-width="1.2" filter="url(#softer)"/>
      <g transform="scale(0.32)">
        
  <g transform="translate(0,0) scale(1)" aria-label="">
    <!-- ظل أرضي -->
    <ellipse cx="0" cy="252" rx="138" ry="14" fill="#000" opacity="0.10"/>
    <!-- مسند ظهر مغطى بنعومة طي القماش -->
    <path filter="url(#soft)" fill="#FFFDD0" stroke="#1B4332" stroke-width="2"
      d="M -132 -120 C -132 -160 132 -160 132 -120 L 122 38 C 122 52 108 60 92 60 L -92 60 C -108 60 -122 52 -122 38 Z"/>
    <!-- خطوط طي عمودية على الظهر -->
    <path d="M -78 -116 L -82 50  M 0 -130 L 0 56  M 78 -116 L 82 50"
      fill="none" stroke="#1B4332" stroke-opacity="0.16" stroke-width="1.4"/>
    <!-- خياطة ذهبية على الحدّ -->
    <path d="M -130 -116 C -130 -154 130 -154 130 -116" fill="none"
      stroke="url(#goldShine)" stroke-width="1.2" stroke-dasharray="4 4" opacity="0.55"/>
    <!-- المقعد -->
    <path filter="url(#soft)" fill="#FFFDD0" stroke="#1B4332" stroke-width="2"
      d="M -132 52 L 132 52 L 162 102 C 166 122 148 138 120 138 L -120 138 C -148 138 -166 122 -162 102 Z"/>
    <!-- التواء القماش على الجبهة -->
    <path d="M -150 110 Q 0 156 150 110" fill="none" stroke="#1B4332" stroke-opacity="0.22" stroke-width="1.4"/>
    <!-- الأرجل الخشبية -->
    <g stroke="#3d2a1f" stroke-width="1">
      <path fill="#6b4e3d" d="M -110 138 L -120 232 L -98 232 L -90 138 Z"/>
      <path fill="#6b4e3d" d="M -34 138 L -42 232 L -20 232 L -12 138 Z"/>
      <path fill="#6b4e3d" d="M 22 138 L 16 232 L 38 232 L 46 138 Z"/>
      <path fill="#6b4e3d" d="M 100 138 L 90 232 L 112 232 L 122 138 Z"/>
    </g>
  </g>
      </g>
      <text y="76" text-anchor="middle" font-family="'Inter', sans-serif"
        font-size="13" font-weight="700" fill="#1B4332">كريمي</text>
    </g>
  <text x="450" y="780" text-anchor="middle" font-family="'Inter', sans-serif"
    font-size="13" fill="#1B4332" opacity="0.7">اختاري اللي يناسب ديكورك</text>
</svg>