<?xml version="1.0" encoding="UTF-8"?>
<svg xmlns="http://www.w3.org/2000/svg" viewBox="0 0 1200 600" width="1200" height="600" role="img" aria-label="مقارنة قبل وبعد">
  
  <defs>
    <linearGradient id="creamBg" x1="0%" y1="0%" x2="0%" y2="100%">
      <stop offset="0%" stop-color="#FAF7F2"/>
      <stop offset="100%" stop-color="#EFE8DC"/>
    </linearGradient>
    <linearGradient id="goldShine" x1="0%" y1="0%" x2="100%" y2="100%">
      <stop offset="0%" stop-color="#E2C879"/>
      <stop offset="100%" stop-color="#C9A84C"/>
    </linearGradient>
    <linearGradient id="primaryDeep" x1="0%" y1="0%" x2="0%" y2="100%">
      <stop offset="0%" stop-color="#1B4332"/>
      <stop offset="100%" stop-color="#143326"/>
    </linearGradient>
    <filter id="soft" x="-10%" y="-10%" width="120%" height="120%">
      <feDropShadow dx="0" dy="4" stdDeviation="6" flood-opacity="0.18"/>
    </filter>
    <filter id="softer" x="-10%" y="-10%" width="120%" height="120%">
      <feDropShadow dx="0" dy="2" stdDeviation="3" flood-opacity="0.12"/>
    </filter>
  </defs>
  <rect width="1200" height="600" fill="url(#creamBg)"/>
  <!-- نصفي الإطار -->
  <rect x="0" y="0" width="600" height="600" fill="#1B4332" opacity="0.05"/>
  <line x1="600" y1="40" x2="600" y2="560" stroke="url(#goldShine)" stroke-width="2"/>
  <!-- شارات -->
  <rect x="40" y="40" width="120" height="36" rx="18" fill="#b85a5a"/>
  <text x="100" y="64" text-anchor="middle" font-family="'Inter', sans-serif" font-size="16" font-weight="700" fill="#fff">قبل</text>
  <rect x="1040" y="40" width="120" height="36" rx="18" fill="#1B4332"/>
  <text x="1100" y="64" text-anchor="middle" font-family="'Inter', sans-serif" font-size="16" font-weight="700" fill="url(#goldShine)">بعد</text>
  <!-- كرسي قديم على اليسار -->
  
    <g transform="translate(280,420) scale(0.85)">
      <ellipse cx="0" cy="252" rx="120" ry="12" fill="#000" opacity="0.08"/>
      <path fill="#a89578" stroke="#5b3d2a" stroke-width="1.5"
        d="M -120 -120 C -120 -160 120 -160 120 -120 L 116 40 C 116 56 100 64 84 64 L -84 64 C -100 64 -116 56 -116 40 Z"/>
      <!-- بقع وتآكل -->
      <ellipse cx="-40" cy="-50" rx="20" ry="14" fill="#705c3f" opacity="0.4"/>
      <ellipse cx="50" cy="-10" rx="14" ry="10" fill="#705c3f" opacity="0.5"/>
      <path d="M -100 -50 Q -90 -48 -85 -45" fill="none" stroke="#5b3d2a" stroke-width="0.8"/>
      <path d="M 80 0 Q 90 4 96 8" fill="none" stroke="#5b3d2a" stroke-width="0.8"/>
      <path fill="#a89578" stroke="#5b3d2a" stroke-width="1.5"
        d="M -120 56 L 120 56 L 148 102 C 152 122 134 138 108 138 L -108 138 C -134 138 -152 122 -148 102 Z"/>
      <g stroke="#3d2a1f" stroke-width="1">
        <path fill="#6b4e3d" d="M -100 138 L -110 232 L -88 232 L -80 138 Z"/>
        <path fill="#6b4e3d" d="M -28 138 L -36 232 L -14 232 L -6 138 Z"/>
        <path fill="#6b4e3d" d="M 18 138 L 12 232 L 34 232 L 42 138 Z"/>
        <path fill="#6b4e3d" d="M 90 138 L 80 232 L 102 232 L 114 138 Z"/>
      </g>
    </g>
  <!-- كرسي محسّن على اليمين -->
  
  <g transform="translate(920,420) scale(0.85)" aria-label="">
    <!-- ظل أرضي -->
    <ellipse cx="0" cy="252" rx="138" ry="14" fill="#000" opacity="0.10"/>
    <!-- مسند ظهر مغطى بنعومة طي القماش -->
    <path filter="url(#soft)" fill="#D4C5A9" stroke="#1B4332" stroke-width="2"
      d="M -132 -120 C -132 -160 132 -160 132 -120 L 122 38 C 122 52 108 60 92 60 L -92 60 C -108 60 -122 52 -122 38 Z"/>
    <!-- خطوط طي عمودية على الظهر -->
    <path d="M -78 -116 L -82 50  M 0 -130 L 0 56  M 78 -116 L 82 50"
      fill="none" stroke="#1B4332" stroke-opacity="0.16" stroke-width="1.4"/>
    <!-- خياطة ذهبية على الحدّ -->
    <path d="M -130 -116 C -130 -154 130 -154 130 -116" fill="none"
      stroke="url(#goldShine)" stroke-width="1.2" stroke-dasharray="4 4" opacity="0.55"/>
    <!-- المقعد -->
    <path filter="url(#soft)" fill="#D4C5A9" stroke="#1B4332" stroke-width="2"
      d="M -132 52 L 132 52 L 162 102 C 166 122 148 138 120 138 L -120 138 C -148 138 -166 122 -162 102 Z"/>
    <!-- التواء القماش على الجبهة -->
    <path d="M -150 110 Q 0 156 150 110" fill="none" stroke="#1B4332" stroke-opacity="0.22" stroke-width="1.4"/>
    <!-- الأرجل الخشبية -->
    <g stroke="#3d2a1f" stroke-width="1">
      <path fill="#6b4e3d" d="M -110 138 L -120 232 L -98 232 L -90 138 Z"/>
      <path fill="#6b4e3d" d="M -34 138 L -42 232 L -20 232 L -12 138 Z"/>
      <path fill="#6b4e3d" d="M 22 138 L 16 232 L 38 232 L 46 138 Z"/>
      <path fill="#6b4e3d" d="M 100 138 L 90 232 L 112 232 L 122 138 Z"/>
    </g>
  </g>
  <!-- شارة لمسة -->
  <g transform="translate(940, 200)">
    <circle r="56" fill="url(#goldShine)"/>
    <text y="-2" text-anchor="middle" font-family="'Inter', sans-serif" font-size="13" font-weight="700" fill="#1B4332">تحوّل</text>
    <text y="18" text-anchor="middle" font-family="'Inter', sans-serif" font-size="13" font-weight="700" fill="#1B4332">ف 60s</text>
  </g>
</svg>