<?xml version="1.0" encoding="UTF-8"?>
<svg xmlns="http://www.w3.org/2000/svg" viewBox="0 0 1200 800" width="1200" height="800" role="img" aria-label="ركن أنيق في صالون">
  
  <defs>
    <linearGradient id="creamBg" x1="0%" y1="0%" x2="0%" y2="100%">
      <stop offset="0%" stop-color="#FAF7F2"/>
      <stop offset="100%" stop-color="#EFE8DC"/>
    </linearGradient>
    <linearGradient id="goldShine" x1="0%" y1="0%" x2="100%" y2="100%">
      <stop offset="0%" stop-color="#E2C879"/>
      <stop offset="100%" stop-color="#C9A84C"/>
    </linearGradient>
    <linearGradient id="primaryDeep" x1="0%" y1="0%" x2="0%" y2="100%">
      <stop offset="0%" stop-color="#1B4332"/>
      <stop offset="100%" stop-color="#143326"/>
    </linearGradient>
    <filter id="soft" x="-10%" y="-10%" width="120%" height="120%">
      <feDropShadow dx="0" dy="4" stdDeviation="6" flood-opacity="0.18"/>
    </filter>
    <filter id="softer" x="-10%" y="-10%" width="120%" height="120%">
      <feDropShadow dx="0" dy="2" stdDeviation="3" flood-opacity="0.12"/>
    </filter>
  </defs>
  <rect width="1200" height="800" fill="url(#creamBg)"/>
  <!-- ظل جدار -->
  <rect x="0" y="0" width="600" height="800" fill="#1B4332" opacity="0.05"/>
  <!-- إطار جدار -->
  <rect x="120" y="120" width="320" height="380" rx="14" fill="none" stroke="url(#goldShine)" stroke-width="2"/>
  <rect x="160" y="160" width="240" height="300" rx="8" fill="#1B4332" opacity="0.10"/>
  <!-- مصباح -->
  <line x1="900" y1="80" x2="900" y2="280" stroke="#1B4332" stroke-width="2"/>
  <ellipse cx="900" cy="320" rx="80" ry="40" fill="url(#goldShine)" opacity="0.6" stroke="#1B4332"/>
  <!-- أرضية + سجاد -->
  <rect x="0" y="640" width="1200" height="160" fill="#EFE8DC"/>
  <ellipse cx="700" cy="700" rx="380" ry="40" fill="#C9A84C" opacity="0.18"/>
  <!-- كرسي -->
  
  <g transform="translate(700,540) scale(1.1)" aria-label="">
    <!-- ظل أرضي -->
    <ellipse cx="0" cy="252" rx="138" ry="14" fill="#000" opacity="0.10"/>
    <!-- مسند ظهر مغطى بنعومة طي القماش -->
    <path filter="url(#soft)" fill="#D4C5A9" stroke="#1B4332" stroke-width="2"
      d="M -132 -120 C -132 -160 132 -160 132 -120 L 122 38 C 122 52 108 60 92 60 L -92 60 C -108 60 -122 52 -122 38 Z"/>
    <!-- خطوط طي عمودية على الظهر -->
    <path d="M -78 -116 L -82 50  M 0 -130 L 0 56  M 78 -116 L 82 50"
      fill="none" stroke="#1B4332" stroke-opacity="0.16" stroke-width="1.4"/>
    <!-- خياطة ذهبية على الحدّ -->
    <path d="M -130 -116 C -130 -154 130 -154 130 -116" fill="none"
      stroke="url(#goldShine)" stroke-width="1.2" stroke-dasharray="4 4" opacity="0.55"/>
    <!-- المقعد -->
    <path filter="url(#soft)" fill="#D4C5A9" stroke="#1B4332" stroke-width="2"
      d="M -132 52 L 132 52 L 162 102 C 166 122 148 138 120 138 L -120 138 C -148 138 -166 122 -162 102 Z"/>
    <!-- التواء القماش على الجبهة -->
    <path d="M -150 110 Q 0 156 150 110" fill="none" stroke="#1B4332" stroke-opacity="0.22" stroke-width="1.4"/>
    <!-- الأرجل الخشبية -->
    <g stroke="#3d2a1f" stroke-width="1">
      <path fill="#6b4e3d" d="M -110 138 L -120 232 L -98 232 L -90 138 Z"/>
      <path fill="#6b4e3d" d="M -34 138 L -42 232 L -20 232 L -12 138 Z"/>
      <path fill="#6b4e3d" d="M 22 138 L 16 232 L 38 232 L 46 138 Z"/>
      <path fill="#6b4e3d" d="M 100 138 L 90 232 L 112 232 L 122 138 Z"/>
    </g>
  </g>
  <!-- وسادة على الكرسي -->
  <rect x="640" y="500" width="120" height="40" rx="10" fill="url(#goldShine)" opacity="0.85" stroke="#1B4332"/>
  <text x="600" y="60" text-anchor="middle" font-family="'Playfair Display', Georgia, serif"
    font-size="18" letter-spacing="6" fill="#1B4332" opacity="0.4">MAISON ELORIA</text>
</svg>