<?xml version="1.0" encoding="UTF-8"?>
<svg xmlns="http://www.w3.org/2000/svg" viewBox="0 0 1600 900" width="1600" height="900" role="img" aria-label="صالون مغربي أنيق">
  
  <defs>
    <linearGradient id="creamBg" x1="0%" y1="0%" x2="0%" y2="100%">
      <stop offset="0%" stop-color="#FAF7F2"/>
      <stop offset="100%" stop-color="#EFE8DC"/>
    </linearGradient>
    <linearGradient id="goldShine" x1="0%" y1="0%" x2="100%" y2="100%">
      <stop offset="0%" stop-color="#E2C879"/>
      <stop offset="100%" stop-color="#C9A84C"/>
    </linearGradient>
    <linearGradient id="primaryDeep" x1="0%" y1="0%" x2="0%" y2="100%">
      <stop offset="0%" stop-color="#1B4332"/>
      <stop offset="100%" stop-color="#143326"/>
    </linearGradient>
    <filter id="soft" x="-10%" y="-10%" width="120%" height="120%">
      <feDropShadow dx="0" dy="4" stdDeviation="6" flood-opacity="0.18"/>
    </filter>
    <filter id="softer" x="-10%" y="-10%" width="120%" height="120%">
      <feDropShadow dx="0" dy="2" stdDeviation="3" flood-opacity="0.12"/>
    </filter>
  </defs>
  <!-- جدار كريمي مع لمسة أخضر -->
  <rect width="1600" height="900" fill="#FAF7F2"/>
  <!-- لوحة جدارية -->
  <rect x="120" y="120" width="200" height="280" rx="12" fill="#EFE8DC" stroke="url(#goldShine)" stroke-width="2"/>
  <rect x="140" y="140" width="160" height="220" rx="8" fill="#1B4332" opacity="0.18"/>
  <!-- ستائر / إطار قوسي -->
  <path d="M 1100 100 L 1100 520 C 1100 340 1480 340 1480 520 L 1480 100 Z"
    fill="#1B4332" opacity="0.06" stroke="url(#goldShine)" stroke-width="1.5"/>
  <!-- نبات داخلي -->
  <ellipse cx="1380" cy="600" rx="48" ry="14" fill="#000" opacity="0.1"/>
  <rect x="1340" y="500" width="80" height="100" rx="8" fill="#EFE8DC" stroke="#1B4332" stroke-opacity="0.2"/>
  <g fill="#1B4332" opacity="0.85">
    <ellipse cx="1380" cy="490" rx="50" ry="80"/>
    <ellipse cx="1340" cy="470" rx="36" ry="50"/>
    <ellipse cx="1420" cy="470" rx="36" ry="50"/>
  </g>
  <!-- أرضية -->
  <rect x="0" y="700" width="1600" height="200" fill="#EFE8DC"/>
  <!-- زليج صغير على الأرضية -->
  <g opacity="0.18">
    <path d="M 100 720 L 150 720" stroke="#C9A84C" stroke-width="0.8"/><path d="M 200 720 L 250 720" stroke="#C9A84C" stroke-width="0.8"/><path d="M 300 720 L 350 720" stroke="#C9A84C" stroke-width="0.8"/><path d="M 400 720 L 450 720" stroke="#C9A84C" stroke-width="0.8"/><path d="M 500 720 L 550 720" stroke="#C9A84C" stroke-width="0.8"/><path d="M 600 720 L 650 720" stroke="#C9A84C" stroke-width="0.8"/><path d="M 700 720 L 750 720" stroke="#C9A84C" stroke-width="0.8"/><path d="M 800 720 L 850 720" stroke="#C9A84C" stroke-width="0.8"/><path d="M 900 720 L 950 720" stroke="#C9A84C" stroke-width="0.8"/><path d="M 1000 720 L 1050 720" stroke="#C9A84C" stroke-width="0.8"/><path d="M 1100 720 L 1150 720" stroke="#C9A84C" stroke-width="0.8"/><path d="M 1200 720 L 1250 720" stroke="#C9A84C" stroke-width="0.8"/><path d="M 1300 720 L 1350 720" stroke="#C9A84C" stroke-width="0.8"/><path d="M 1400 720 L 1450 720" stroke="#C9A84C" stroke-width="0.8"/><path d="M 1500 720 L 1550 720" stroke="#C9A84C" stroke-width="0.8"/><path d="M 1600 720 L 1650 720" stroke="#C9A84C" stroke-width="0.8"/>
  </g>
  <!-- طاولة قهوة -->
  <ellipse cx="800" cy="690" rx="170" ry="24" fill="#1B4332" opacity="0.15"/>
  <rect x="660" y="620" width="280" height="20" rx="4" fill="#5b3d2a"/>
  <rect x="700" y="640" width="200" height="50" fill="#3d2a1f"/>
  <!-- إبريق شاي ذهبي -->
  <g transform="translate(780, 590)">
    <path d="M 0 0 C -20 0 -28 12 -28 26 C -28 40 -16 50 0 50 C 16 50 28 40 28 26 C 28 12 20 0 0 0 Z" fill="url(#goldShine)" stroke="#1B4332"/>
    <rect x="-4" y="-12" width="8" height="14" fill="url(#goldShine)" stroke="#1B4332"/>
  </g>
  <!-- كرسيان -->
  
  <g transform="translate(480,610) scale(0.95)" aria-label="">
    <!-- ظل أرضي -->
    <ellipse cx="0" cy="252" rx="138" ry="14" fill="#000" opacity="0.10"/>
    <!-- مسند ظهر مغطى بنعومة طي القماش -->
    <path filter="url(#soft)" fill="#D4C5A9" stroke="#1B4332" stroke-width="2"
      d="M -132 -120 C -132 -160 132 -160 132 -120 L 122 38 C 122 52 108 60 92 60 L -92 60 C -108 60 -122 52 -122 38 Z"/>
    <!-- خطوط طي عمودية على الظهر -->
    <path d="M -78 -116 L -82 50  M 0 -130 L 0 56  M 78 -116 L 82 50"
      fill="none" stroke="#1B4332" stroke-opacity="0.16" stroke-width="1.4"/>
    <!-- خياطة ذهبية على الحدّ -->
    <path d="M -130 -116 C -130 -154 130 -154 130 -116" fill="none"
      stroke="url(#goldShine)" stroke-width="1.2" stroke-dasharray="4 4" opacity="0.55"/>
    <!-- المقعد -->
    <path filter="url(#soft)" fill="#D4C5A9" stroke="#1B4332" stroke-width="2"
      d="M -132 52 L 132 52 L 162 102 C 166 122 148 138 120 138 L -120 138 C -148 138 -166 122 -162 102 Z"/>
    <!-- التواء القماش على الجبهة -->
    <path d="M -150 110 Q 0 156 150 110" fill="none" stroke="#1B4332" stroke-opacity="0.22" stroke-width="1.4"/>
    <!-- الأرجل الخشبية -->
    <g stroke="#3d2a1f" stroke-width="1">
      <path fill="#6b4e3d" d="M -110 138 L -120 232 L -98 232 L -90 138 Z"/>
      <path fill="#6b4e3d" d="M -34 138 L -42 232 L -20 232 L -12 138 Z"/>
      <path fill="#6b4e3d" d="M 22 138 L 16 232 L 38 232 L 46 138 Z"/>
      <path fill="#6b4e3d" d="M 100 138 L 90 232 L 112 232 L 122 138 Z"/>
    </g>
  </g>
  
  <g transform="translate(1120,610) scale(0.95)" aria-label="">
    <!-- ظل أرضي -->
    <ellipse cx="0" cy="252" rx="138" ry="14" fill="#000" opacity="0.10"/>
    <!-- مسند ظهر مغطى بنعومة طي القماش -->
    <path filter="url(#soft)" fill="#D4C5A9" stroke="#1B4332" stroke-width="2"
      d="M -132 -120 C -132 -160 132 -160 132 -120 L 122 38 C 122 52 108 60 92 60 L -92 60 C -108 60 -122 52 -122 38 Z"/>
    <!-- خطوط طي عمودية على الظهر -->
    <path d="M -78 -116 L -82 50  M 0 -130 L 0 56  M 78 -116 L 82 50"
      fill="none" stroke="#1B4332" stroke-opacity="0.16" stroke-width="1.4"/>
    <!-- خياطة ذهبية على الحدّ -->
    <path d="M -130 -116 C -130 -154 130 -154 130 -116" fill="none"
      stroke="url(#goldShine)" stroke-width="1.2" stroke-dasharray="4 4" opacity="0.55"/>
    <!-- المقعد -->
    <path filter="url(#soft)" fill="#D4C5A9" stroke="#1B4332" stroke-width="2"
      d="M -132 52 L 132 52 L 162 102 C 166 122 148 138 120 138 L -120 138 C -148 138 -166 122 -162 102 Z"/>
    <!-- التواء القماش على الجبهة -->
    <path d="M -150 110 Q 0 156 150 110" fill="none" stroke="#1B4332" stroke-opacity="0.22" stroke-width="1.4"/>
    <!-- الأرجل الخشبية -->
    <g stroke="#3d2a1f" stroke-width="1">
      <path fill="#6b4e3d" d="M -110 138 L -120 232 L -98 232 L -90 138 Z"/>
      <path fill="#6b4e3d" d="M -34 138 L -42 232 L -20 232 L -12 138 Z"/>
      <path fill="#6b4e3d" d="M 22 138 L 16 232 L 38 232 L 46 138 Z"/>
      <path fill="#6b4e3d" d="M 100 138 L 90 232 L 112 232 L 122 138 Z"/>
    </g>
  </g>
  <!-- علامة مائية -->
  <text x="800" y="60" text-anchor="middle" font-family="'Playfair Display', Georgia, serif"
    font-size="22" letter-spacing="8" fill="#1B4332" opacity="0.4">MAISON ELORIA</text>
</svg>